<?xml version="1.0"?>
<svg width="353" height="353" xmlns="http://www.w3.org/2000/svg" xmlns:svg="http://www.w3.org/2000/svg">
 <mask height="257" id="mask0_181_328" maskUnits="userSpaceOnUse" width="257" x="48" y="48">
  <rect fill="#D9D9D9" height="256" id="svg_1" width="256" x="48.07" y="48.02"/>
 </mask>

 <g class="layer">
  <title>Layer 1</title>
  <g id="svg_2" mask="url(#mask0_181_328)">
   <path d="m117.4,155.9l-14.87,8.22c-2.28,1.29 -4.64,1.63 -7.08,1.02c-2.43,-0.61 -4.29,-2.05 -5.57,-4.34l-17.23,-30.15c-1.29,-2.29 -1.63,-4.66 -1.02,-7.13c0.61,-2.47 2.05,-4.35 4.34,-5.63l56,-32.53l15.79,0c1.81,0 3.25,0.54 4.33,1.62c1.08,1.08 1.62,2.52 1.62,4.32l0,3.7c0,6.07 2.21,11.31 6.63,15.73c4.41,4.42 9.66,6.63 15.73,6.63c6.07,0 11.31,-2.21 15.73,-6.63c4.42,-4.42 6.63,-9.66 6.63,-15.73l0,-3.7c0,-1.8 0.54,-3.24 1.62,-4.32c1.08,-1.08 2.52,-1.62 4.33,-1.62l15.79,0l56,32.53c2.28,1.28 3.73,3.16 4.34,5.63c0.61,2.47 0.27,4.84 -1.02,7.13l-17.23,30.15c-1.28,2.29 -3.11,3.7 -5.49,4.26c-2.38,0.55 -4.77,0.19 -7.16,-1.1l-14.87,-7.9l0,101.19c0,2.68 -0.91,4.93 -2.71,6.73c-1.81,1.81 -4.05,2.71 -6.73,2.71l-98.46,0c-2.68,0 -4.92,-0.9 -6.73,-2.71c-1.8,-1.8 -2.71,-4.05 -2.71,-6.73l0,-101.35zm16,-26.81l0,121.6l85.34,0l0,-121.6l32.86,18.03l10.99,-18.56l-45.76,-26.88l-3.39,0c-1.64,9 -5.89,16.53 -12.75,22.59c-6.87,6.06 -15.07,9.08 -24.62,9.08c-9.54,0 -17.75,-3.02 -24.62,-9.08c-6.86,-6.06 -11.11,-13.59 -12.75,-22.59l-3.39,0l-45.76,26.88l10.99,18.56l32.86,-18.03z" fill="#F3F4F7" id="svg_3"/>
  </g>
 </g>
</svg>